<?xml version="1.0" encoding="UTF-8"?>
<svg width="82px" height="16px" viewBox="0 0 82 16" version="1.1" xmlns="http://www.w3.org/2000/svg" xmlns:xlink="http://www.w3.org/1999/xlink">
    <!-- Generator: Sketch 53.2 (72643) - https://sketchapp.com -->
    <title>sber</title>
    <desc>Created with Sketch.</desc>
    <g id="Page-1" stroke="none" stroke-width="1" fill="none" fill-rule="evenodd">
        <g id="Artboard" transform="translate(-874.000000, -601.000000)" fill="#FFFFFF">
            <g id="sber" transform="translate(874.000000, 601.000000)">
                <path d="M14.7658622,3.09388668 C14.6260647,2.87612006 14.4765343,2.66469419 14.3177204,2.4602448 C14.2916769,2.42655221 14.2653252,2.39309655 14.2386687,2.35988201 L4.89038759,7.92432103 L0.354451357,5.22591801 C0.264879845,5.52734444 0.191898416,5.83340834 0.135832316,6.14274574 L4.8898424,8.97297664 L14.7658622,3.09388668 Z M15.9996151,6.42159156 C15.8693508,5.53824265 15.6023131,4.68031451 15.208007,3.87834401 L4.89038759,10.0200047 L0.0186176174,7.12033364 C0.00934947849,7.26572407 0.00280726278,7.4121995 0.000626524208,7.55975994 C-0.00591569151,8.10443156 0.0387894492,8.64910318 0.134196762,9.18617977 C0.29979843,10.1289969 0.624983147,11.0370143 1.09590247,11.8715627 C1.66551732,12.885222 2.44463373,13.7671909 3.38186168,14.4592954 C4.001663,14.9162846 4.68480484,15.2813922 5.40994855,15.5432136 C5.72397491,15.657139 6.05054051,15.7504493 6.38037722,15.8242295 C6.85359409,15.9272807 7.33544915,15.9861264 7.81966467,16 L8.26780645,16 C9.67828852,15.9558776 11.0509441,15.5354276 12.2422025,14.7826264 C13.1748983,14.1893725 13.9771823,13.4142892 14.6006713,12.5041196 C15.3551367,11.4062905 15.8400922,10.1475606 16.0165158,8.82921371 C16.0770095,8.3746803 16.1016181,7.91612886 16.0901157,7.45776964 C16.0808664,7.11088306 16.0506449,6.76486483 15.9996151,6.42159156 L15.9996151,6.42159156 Z M12.1059063,0.487708948 C11.8038942,0.304452194 11.4898928,0.141518305 11.166008,0 L4.89038759,3.73566609 L2.09522592,2.07181365 C1.89623353,2.29857932 1.7092352,2.53673753 1.53532129,2.78466077 L4.89038759,4.7832367 L12.1059063,0.487708948 Z M13.6258811,1.67741498 C13.4023554,1.45498932 13.1662905,1.2455837 12.9187766,1.05136812 L4.89038759,5.83080731 L1.05773955,3.54904554 C0.912051931,3.81312227 0.780656646,4.08476074 0.664116235,4.36279795 L4.89038759,6.87729292 L13.6258811,1.67741498 L13.6258811,1.67741498 Z M20.1719131,13.5978029 L20.1719131,14.1050419 L81.7777778,14.1050419 L81.7777778,13.0200387 L20.1719131,13.0200387 L20.1719131,13.5978029 Z M58.3708203,9.80734412 C58.4798572,9.30390262 58.673943,8.61112806 58.9563486,7.72847794 L61.6217563,7.72847794 L61.9837589,8.84006374 C62.143498,9.33862272 62.2727068,9.75960397 62.3692045,10.100295 C62.4662474,10.4415285 62.5218562,10.6997593 62.5382117,10.8744448 L64.6737,10.8744448 C64.5577873,10.641839 64.4470874,10.4066968 64.3416825,10.1691927 C64.1654415,9.76197031 64.0066499,9.34748772 63.8657363,8.926864 L61.9472316,3.23547961 C61.8732762,3.0298159 61.814959,2.81891214 61.7727725,2.60455023 C61.7479132,2.46571808 61.725557,2.32645363 61.7057148,2.18682399 L59.3069024,2.18682399 L59.3069024,2.46729732 C59.3396134,2.47597735 59.3739601,2.4917099 59.4628252,2.51612247 C59.5397863,2.53571914 59.6102635,2.57499214 59.6672694,2.63004781 C59.716336,2.67941545 59.745776,2.74939816 59.7588604,2.84053843 C59.7648575,2.89370359 59.7697641,2.95826128 59.77249,3.030414 C59.7691661,3.22382761 59.7337994,3.41537071 59.6678146,3.59732818 L58.3288411,7.02973587 C58.1206166,7.5683095 57.9076229,8.10504529 57.6898847,8.63988065 C57.5417152,9.00300379 57.3908768,9.36504289 57.2373814,9.72596887 C57.1130793,10.0172922 57.0040424,10.2511104 56.9119062,10.425796 C56.8192248,10.599939 56.7374471,10.7502119 56.6638472,10.8744448 L58.183822,10.8744448 C58.2001775,10.6661242 58.2628738,10.3107856 58.3708203,9.80734412 L58.3708203,9.80734412 Z M60.3073162,3.64669583 L61.4413002,7.15505374 L59.1487988,7.15505374 L60.3073162,3.64669583 Z M76.8264109,7.59068253 C76.9905114,7.82504323 77.1480698,8.04638389 77.29636,8.25904452 C77.4446502,8.47170515 77.5902145,8.67948327 77.730327,8.88400637 C77.8715298,9.08798698 78.0176393,9.30173261 78.1708362,9.52687078 C78.3311205,9.76014648 78.474504,9.98853965 78.5993513,10.2125928 C78.7236534,10.4371885 78.8381422,10.6579866 78.9433628,10.8744448 L81.7777778,10.8993999 C81.2448746,10.3332148 80.7257092,9.75437963 80.2207304,9.1633947 C79.9782153,8.88190466 79.7370592,8.59925807 79.4972704,8.31546469 C79.2726543,8.0496389 79.058942,7.78706812 78.8594044,7.52883735 C78.4520839,7.01407908 78.0810186,6.47191208 77.7488633,5.90621503 L77.8813431,5.73152952 C78.0814259,5.46570373 78.3191264,5.15973282 78.5928091,4.81470179 C78.8654014,4.46912827 79.1472619,4.12789475 79.4373001,3.79100125 C79.7144177,3.46773017 80.0039436,3.15519849 80.3052341,2.85410097 C80.5958175,2.56711762 80.8558705,2.34957448 81.0897548,2.19930153 L81.0897548,2.18682399 L79.1243641,2.18682399 C79.058942,2.36150951 78.9608087,2.57579765 78.8272385,2.8291459 C78.6953038,3.08357915 78.5399262,3.35591496 78.3643767,3.64669583 C78.1871917,3.93801919 78.0023741,4.24073509 77.8082884,4.55267352 C77.6224534,4.85427123 77.429772,5.15163849 77.2303927,5.44454616 C77.0368521,5.727732 76.8574864,5.98976028 76.6933858,6.2311735 C76.5583223,6.42915559 76.4196406,6.62466953 76.2774099,6.81761774 L76.8264109,7.59122504 L76.8264109,7.59068253 Z M67.8090569,10.594514 C67.7763458,10.5869189 67.7419991,10.5706439 67.6536792,10.5451463 C67.5762116,10.5266226 67.5052035,10.4876386 67.4481446,10.432306 C67.3955938,10.3734913 67.3638118,10.2991904 67.357644,10.2207303 C67.3439378,10.1004346 67.3379286,9.97939358 67.3396529,9.85833927 L67.3396529,6.55504696 L70.5840467,6.55504696 L70.5840467,9.85888177 C70.5840467,10.0086122 70.5780497,10.1290476 70.5660556,10.2212728 C70.5595775,10.2994953 70.5278281,10.3735297 70.4755549,10.432306 C70.4183996,10.487509 70.3474293,10.5264723 70.2700203,10.5451463 C70.1822456,10.5706439 70.1473538,10.5869189 70.1146427,10.594514 L70.1146427,10.8744448 L72.8514696,10.8744448 L72.8514696,10.594514 C72.8182134,10.5869189 72.7838667,10.5706439 72.6955468,10.5451463 C72.6182541,10.5265826 72.5474321,10.4875974 72.4905574,10.432306 C72.4375662,10.3737177 72.4055528,10.2993239 72.3995116,10.2207303 C72.3863505,10.1003945 72.3805245,9.97937597 72.3820656,9.85833927 L72.3820656,8.12287661 L72.3695264,8.16085173 L72.3695264,4.90204455 L72.3815205,4.93947716 L72.3815205,3.20347201 C72.3815205,3.05428407 72.3880627,2.93330621 72.3995116,2.84108093 C72.4059897,2.76285849 72.437739,2.68882407 72.4900122,2.63004781 C72.5475508,2.57524797 72.6183553,2.5361888 72.6955468,2.51666497 C72.7833215,2.4922524 72.8182134,2.47543485 72.8509244,2.46783983 L72.8509244,2.18628149 L70.1151879,2.18628149 L70.1151879,2.46675482 C70.147899,2.47543485 70.1822456,2.4911674 70.2700203,2.51612247 C70.3473427,2.5350175 70.4182579,2.57395054 70.4755549,2.6289628 C70.5276948,2.68782284 70.5594245,2.76181128 70.5660556,2.83999593 C70.5780497,2.93222121 70.5840467,3.05319906 70.5840467,3.20292951 L70.5840467,5.98053775 L67.3396529,5.98053775 L67.3396529,3.20292951 C67.3396529,3.05319906 67.3451047,2.93222121 67.357644,2.83999593 C67.3641989,2.76179243 67.3959383,2.68778111 67.4481446,2.6289628 C67.5055787,2.57402186 67.5764228,2.53494079 67.6536792,2.51557997 C67.7419991,2.4911674 67.7758006,2.47434985 67.8090569,2.46675482 L67.8090569,2.18628149 L65.0722299,2.18628149 L65.0722299,2.46675482 C65.104941,2.47543485 65.1398328,2.4911674 65.2286979,2.51612247 C65.305565,2.53536114 65.3760429,2.57426046 65.4331422,2.6289628 C65.4822088,2.67887295 65.5116488,2.74939816 65.524188,2.83999593 C65.5356369,2.9295087 65.5416339,3.04506154 65.5416339,3.18773946 L65.5416339,9.87407181 C65.5416339,10.0162072 65.5356369,10.1317601 65.5247332,10.2212728 C65.5179493,10.2996245 65.4858112,10.3736735 65.4331422,10.432306 C65.3761867,10.4874892 65.3053963,10.5264571 65.2281528,10.5451463 C65.1398328,10.5706439 65.1054862,10.5869189 65.0722299,10.594514 L65.0722299,10.8744448 L67.8090569,10.8744448 L67.8090569,10.594514 L67.8090569,10.594514 Z M76.6028851,10.594514 C76.5701741,10.5869189 76.5352823,10.5706439 76.4475075,10.5451463 C76.3699604,10.5268269 76.2989005,10.4878144 76.2419729,10.432306 C76.1890515,10.3736733 76.1570488,10.2993042 76.1509271,10.2207303 C76.1374978,10.1004123 76.1314895,9.97938855 76.132936,9.85833927 L76.132936,3.20347201 C76.132936,3.05374157 76.138933,2.93276371 76.1509271,2.84053843 C76.1574808,2.76223223 76.1894346,2.68816719 76.2419729,2.62950531 C76.2993004,2.57442086 76.3701853,2.53531731 76.4475075,2.51612247 C76.5347371,2.4917099 76.5696289,2.47489235 76.60234,2.46729732 L76.60234,2.18628149 L73.8660582,2.18628149 L73.8660582,2.46675482 C73.8987693,2.47543485 73.9325708,2.4911674 74.0208907,2.51612247 C74.0981657,2.53513805 74.169051,2.57405472 74.2264253,2.6289628 C74.2787299,2.68777241 74.3106488,2.76175661 74.3174711,2.83999593 C74.3283748,2.93222121 74.334917,3.05319906 74.334917,3.20292951 L74.334917,9.85779677 C74.334917,10.0080697 74.3283748,10.1285051 74.3174711,10.2207303 C74.3109563,10.2990462 74.2789974,10.373123 74.2264253,10.4317635 C74.1693664,10.4870961 74.0983584,10.5260801 74.0208907,10.5446038 C73.9325708,10.5701014 73.8987693,10.5863764 73.8655131,10.5939715 L73.8655131,10.8739023 L76.60234,10.8739023 L76.60234,10.5939715 L76.6028851,10.594514 Z M32.4129439,10.7990371 C32.8112084,10.7580656 33.1960254,10.6326444 33.5414761,10.431221 C33.871858,10.2359204 34.1357274,9.94459702 34.3374457,9.55833588 C34.5386188,9.17044722 34.639478,8.63988065 34.639478,7.96609365 C34.639478,7.48326722 34.5729655,7.0725935 34.4399404,6.736785 C34.3125916,6.40594551 34.0906521,6.11946639 33.8015292,5.91272505 C33.5082199,5.70060692 33.1255002,5.54707897 32.6566415,5.45051368 C32.1856019,5.3555759 31.6120677,5.30783576 30.9365839,5.30783576 L30.2360216,5.30783576 L30.2360216,3.23547961 C30.2360216,3.01034144 30.2801816,2.86874852 30.3695919,2.81070084 C30.4579118,2.75211067 30.6421842,2.72390059 30.9240447,2.72390059 L31.9380881,2.72390059 C32.2510241,2.72390059 32.5061705,2.73529312 32.7029821,2.7607907 C32.8997938,2.78628827 33.0633492,2.84433594 33.1920128,2.93547621 C33.3206763,3.02770149 33.4242614,3.16441189 33.5060391,3.34777744 C33.5856361,3.53060048 33.6657782,3.77581121 33.7470107,4.08395212 L34.193517,4.08395212 L34.193517,2.18628149 L27.9702343,2.18628149 L27.9702343,2.46675482 C28.0029453,2.47543485 28.037292,2.4911674 28.1250667,2.51612247 C28.2024178,2.53494441 28.2733511,2.57388742 28.3306013,2.6289628 C28.3828729,2.68779321 28.414787,2.76176607 28.4216471,2.83999593 C28.433096,2.9300512 28.4385479,3.04668904 28.4390931,3.19045197 L28.4390931,4.93839216 L28.4396382,4.93784966 L28.4396382,8.12341912 L28.4396382,8.12233411 L28.4396382,9.8708168 C28.4385479,10.0145797 28.433096,10.1312176 28.4216471,10.2212728 C28.4149776,10.2995503 28.3830388,10.3735803 28.3306013,10.432306 C28.2735425,10.4876386 28.2025344,10.5266226 28.1250667,10.5451463 C28.037292,10.5706439 28.0029453,10.5869189 27.9691439,10.594514 L27.9691439,10.8744448 L31.1284889,10.8744448 C31.5624559,10.8744448 31.990971,10.8500322 32.4129439,10.7990371 L32.4129439,10.7990371 Z M30.6345516,10.2945106 C30.5222436,10.2641305 30.4355592,10.2174753 30.3750437,10.1502051 C30.3116185,10.0764526 30.2715876,9.98564631 30.2600098,9.88926186 C30.2425319,9.7523554 30.234517,9.61441673 30.2360216,9.47641813 L30.2360216,5.84436985 L30.960572,5.84436985 C31.6115225,5.84436985 32.0716583,6.01688536 32.3415247,6.36191639 C32.6108459,6.70748991 32.7455065,7.27169159 32.7455065,8.05343641 C32.7455065,8.56989794 32.6986207,8.97731665 32.6070296,9.27677754 C32.5143483,9.57623843 32.3916817,9.80517411 32.2384848,9.96358458 C32.0858331,10.12091 31.9108289,10.2239854 31.713472,10.2684705 C31.5172055,10.3151256 31.3138517,10.3373682 31.1045008,10.3373682 C30.9038728,10.3373682 30.7474048,10.3238056 30.6345516,10.2950531 L30.6345516,10.2945106 Z M41.6347422,8.85254128 L41.0802894,8.85254128 C41.0315937,9.12609381 40.9688148,9.3969779 40.8922007,9.66412369 C40.8333207,9.86430678 40.7460912,10.0140372 40.6343283,10.113315 C40.5214751,10.2125928 40.3628264,10.2760655 40.1567466,10.2999356 C39.9528475,10.3248907 39.6688063,10.3379107 39.3068037,10.3379107 C38.9687892,10.3379107 38.7060102,10.3248907 38.516286,10.2999356 C38.3281973,10.275523 38.1859041,10.2294104 38.0888612,10.1626827 C37.9906843,10.0940613 37.9255313,9.98797201 37.9089503,9.8697318 C37.8815527,9.70700473 37.869325,9.54210655 37.8724229,9.37714034 L37.8724229,6.64293222 L39.0053166,6.64293222 C39.257189,6.64637946 39.5086962,6.66322104 39.7587618,6.69338487 C39.8999646,6.70965992 40.0346252,6.736785 40.163834,6.77476011 C40.2924976,6.81165022 40.4009893,6.85939036 40.488764,6.91798054 L40.488764,5.80585224 C40.4009893,5.86444241 40.2924976,5.91055505 40.163834,5.94364765 C39.8973635,6.01202474 39.6243095,6.05185374 39.3493281,6.0624555 C39.2163031,6.06788051 39.1018143,6.06950802 39.0053166,6.06950802 L37.8724229,6.06950802 L37.8724229,3.18556946 C37.8724229,2.99352389 37.8980466,2.86874852 37.9503843,2.81124335 C38.0021769,2.75156817 38.1133945,2.72335808 38.2818566,2.72335808 L39.1868631,2.72335808 C39.5003443,2.72335808 39.7549455,2.73529312 39.9528475,2.7607907 C40.149114,2.78628827 40.3126694,2.84433594 40.4407878,2.93547621 C40.5694514,3.02770149 40.6735816,3.16441189 40.754269,3.34777744 C40.8355015,3.53060048 40.9156436,3.77581121 40.9957857,4.08395212 L41.4428372,4.08395212 L41.4428372,2.18628149 L35.6164489,2.18628149 L35.6164489,2.46675482 C35.64916,2.47543485 35.6835066,2.4911674 35.7723717,2.51612247 C35.8493774,2.53541477 35.9200185,2.57430051 35.9773611,2.6289628 C36.0294679,2.6878436 36.0611927,2.76182067 36.0678618,2.83999593 C36.0798558,2.93222121 36.086398,3.05319906 36.086398,3.20292951 L36.086398,9.85779677 C36.086398,10.0080697 36.0798558,10.1285051 36.0678618,10.2207303 C36.0616139,10.2989072 36.0300489,10.3729577 35.9779063,10.4317635 C35.9206875,10.4868812 35.849742,10.5258309 35.7723717,10.5446038 C35.684597,10.5701014 35.6497051,10.5863764 35.6164489,10.5939715 L35.6164489,10.8739023 L41.6352873,10.8739023 L41.6352873,8.85199878 L41.6347422,8.85254128 Z M21.2917224,9.89414437 C21.618288,10.273353 22.0299024,10.5625064 22.5292915,10.762147 C23.0270451,10.9617875 23.6229319,11.0605228 24.314226,11.0605228 C24.6598731,11.0605228 24.9777158,11.0366528 25.2666636,10.9862001 C25.9425714,10.8755939 26.5901156,10.6341441 27.1726291,10.275523 L26.9071242,9.73898891 L26.4851513,9.93211949 C26.3488551,9.99450717 26.2016553,10.0509273 26.0446421,10.100295 C25.8695835,10.1545938 25.6903436,10.1945111 25.5087256,10.2196453 C25.3075525,10.2489404 25.0736683,10.2630455 24.8087085,10.2630455 C24.2940542,10.2630455 23.8737169,10.1626827 23.5476964,9.96358458 C23.2221829,9.76344256 22.9577204,9.47871094 22.7828024,9.14006713 C22.5974396,8.7901536 22.4704116,8.37839487 22.4022635,7.90370596 C22.3313037,7.39085357 22.2970526,6.87363229 22.2997688,6.35594887 C22.2997688,5.92357509 22.3199406,5.48469128 22.3602843,5.03875496 C22.4000828,4.59390364 22.4965804,4.19407995 22.6492321,3.8403689 C22.7938878,3.4970287 23.0270922,3.19778773 23.3252611,2.97290883 C23.6229319,2.74722816 24.0285493,2.63655783 24.5432036,2.63655783 C25.0098816,2.63655783 25.4133183,2.76730072 25.7546039,3.02932899 C26.0969798,3.29135727 26.3085115,3.68846845 26.3891988,4.22120503 L26.9191183,4.22120503 L26.9191183,2.48574238 C26.7469369,2.4043924 26.5672884,2.33971751 26.3826566,2.29261181 C26.170642,2.23704563 25.9551959,2.19536453 25.7377031,2.16783644 C25.5125419,2.13908385 25.2906517,2.11575628 25.0736683,2.09839623 C24.8772139,2.08322523 24.6802752,2.07508245 24.4832333,2.07398366 C23.7428725,2.07398366 23.1120939,2.17868647 22.5892618,2.38646458 C22.0664298,2.5942427 21.6384598,2.8958736 21.3042616,3.29135727 C20.9706086,3.68629844 20.7252755,4.16912488 20.5688075,4.73983657 C20.4117944,5.30946326 20.3332878,5.95666768 20.3332878,6.68036483 C20.3332878,7.36283186 20.4117944,7.97423117 20.5688075,8.51564778 C20.7252755,9.05706439 20.9667923,9.51602075 21.2917224,9.89414437 L21.2917224,9.89414437 Z M45.481565,10.594514 C45.4488539,10.5869189 45.4145073,10.5706439 45.3261874,10.5451463 C45.2489045,10.5265574 45.1780889,10.4875756 45.1211979,10.432306 C45.0687531,10.3733717 45.036822,10.2991692 45.0301521,10.2207303 C45.016971,10.100396 45.011145,9.97937632 45.0127062,9.85833927 L45.0127062,7.43010206 L45.844658,7.43010206 C46.2791701,7.43010206 46.6929653,7.39592446 47.0876789,7.32973926 C47.4585414,7.27103848 47.8133359,7.1371681 48.130072,6.93642559 C48.4315591,6.74058251 48.6708952,6.46390669 48.8480802,6.10639813 C49.0252652,5.74834707 49.1141303,5.27420066 49.1141303,4.6834164 C49.1141303,4.11704472 49.0290815,3.66731089 48.8606194,3.3352999 C48.6916122,3.00220391 48.463725,2.75102567 48.1791386,2.58013766 C47.8778173,2.40450689 47.542712,2.29397098 47.1956255,2.2557217 C46.8157629,2.20957119 46.4334211,2.18656241 46.0507378,2.18682399 L42.7332892,2.18682179 L42.7332892,2.46729732 C42.7660003,2.47597735 42.8003469,2.4917099 42.8886668,2.51666497 C42.9660371,2.53543786 43.0369826,2.57438758 43.0942014,2.62950531 C43.1427229,2.67941545 43.172708,2.74994066 43.1852473,2.84053843 C43.1972413,2.93276371 43.2032384,3.05374157 43.2032384,3.20347201 L43.2032384,9.85833927 C43.2032384,10.0086122 43.1972413,10.1290476 43.1852473,10.2212728 C43.1788893,10.2996275 43.1469099,10.373752 43.0942014,10.432306 C43.0372905,10.4878366 42.966224,10.5268527 42.8886668,10.5451463 C42.8003469,10.5706439 42.7660003,10.5869189 42.7332892,10.594514 L42.7332892,10.8744448 L45.4821102,10.8744448 L45.4821102,10.594514 L45.481565,10.594514 Z M45.0127062,3.19696199 C45.0127062,3.11504425 45.018158,3.04126403 45.0301521,2.97887634 C45.0407891,2.92112234 45.0703051,2.86848391 45.1141105,2.8291459 C45.1593609,2.79171329 45.2280541,2.76513071 45.3201903,2.74777066 C45.4128717,2.73149561 45.5393546,2.72335808 45.6996388,2.72335808 C45.9166223,2.72335808 46.1199762,2.75211067 46.3102456,2.81070084 C46.4977892,2.86874852 46.6618897,2.97128132 46.8030926,3.11667175 C46.9437502,3.26260469 47.0538775,3.45627776 47.129113,3.69714848 C47.2054388,3.93801919 47.2436018,4.24182009 47.2436018,4.60855118 C47.2436018,5.34092836 47.141107,5.90458753 46.9366628,6.3000712 C46.7311282,6.69501238 46.3713063,6.89248296 45.8571972,6.89248296 L45.0127062,6.89248296 L45.0127062,3.19696199 L45.0127062,3.19696199 Z M54.3915176,10.7990371 C54.7893259,10.7575363 55.1736773,10.6321456 55.5189595,10.431221 C55.848251,10.2359204 56.1132107,9.94459702 56.314929,9.55833588 C56.5161022,9.17044722 56.615871,8.63988065 56.615871,7.96609365 C56.615871,7.48326722 56.5493584,7.0725935 56.4168786,6.736785 C56.2894031,6.40571148 56.0670379,6.11917229 55.777377,5.91272505 C55.4846128,5.70060692 55.1024384,5.54707897 54.631944,5.45051368 C54.1614497,5.3555759 53.5879154,5.30783576 52.9129769,5.30783576 L52.2140501,5.30783576 L52.2140501,3.23547961 C52.2140501,3.01034144 52.2571197,2.86874852 52.3454396,2.81070084 C52.4343047,2.75211067 52.6202127,2.72390059 52.901528,2.72390059 L53.9139359,2.72390059 C54.2279622,2.72390059 54.4836538,2.73529312 54.6804655,2.7607907 C54.8778223,2.78628827 55.0397422,2.84433594 55.1684057,2.93547621 C55.2970693,3.02770149 55.4017448,3.16441189 55.4829773,3.34777744 C55.5625742,3.53060048 55.6432616,3.77581121 55.7228585,4.08395212 L56.1699099,4.08395212 L56.1699099,2.18628149 L49.9471724,2.18628149 L49.9471724,2.46675482 C49.9798835,2.47543485 50.0142301,2.4911674 50.1020048,2.51612247 C50.1793082,2.53506591 50.2502113,2.57399237 50.3075394,2.6289628 C50.3599103,2.68773059 50.3918391,2.76173761 50.3985853,2.83999593 C50.4100342,2.93222121 50.4160312,3.05319906 50.4160312,3.20292951 L50.4160312,4.93839216 L50.4165764,4.93784966 L50.4165764,8.12341912 L50.4165764,8.12233411 L50.4165764,9.85833927 C50.4165764,10.0080697 50.4100342,10.1285051 50.3985853,10.2207303 C50.3921879,10.2990752 50.3602137,10.3731877 50.3075394,10.4317635 C50.2505295,10.4871616 50.1795021,10.5261562 50.1020048,10.5446038 C50.0142301,10.5701014 49.9798835,10.5863764 49.9471724,10.5939715 L49.9471724,10.8739023 L53.105427,10.8739023 C53.5399392,10.8739023 53.9684543,10.8494897 54.3915176,10.7984946 L54.3915176,10.7990371 Z M52.6114898,10.2945106 C52.4991817,10.2641305 52.4124974,10.2174753 52.352527,10.1502051 C52.2890992,10.0763966 52.2489029,9.98564536 52.2369479,9.88926186 C52.2198242,9.75233137 52.2121736,9.6143921 52.2140501,9.47641813 L52.2140501,5.84436985 L52.9364198,5.84436985 C53.5879154,5.84436985 54.0485965,6.01688536 54.3179177,6.36191639 C54.5866937,6.70748991 54.7224447,7.27169159 54.7224447,8.05343641 C54.7224447,8.56989794 54.6766492,8.97731665 54.5834226,9.27677754 C54.4912864,9.57623843 54.3680747,9.80517411 54.2159682,9.96358458 C54.0627713,10.12091 53.8883122,10.2239854 53.6909553,10.2684705 C53.4913393,10.3148722 53.2869735,10.3379938 53.0819841,10.3373682 C52.8802658,10.3373682 52.7237978,10.3238056 52.6114898,10.2950531 L52.6114898,10.2945106 Z" id="Shape"></path>
            </g>
        </g>
    </g>
</svg>