<?xml version="1.0" encoding="UTF-8"?>
<svg width="33px" height="12px" viewBox="0 0 33 12" version="1.1" xmlns="http://www.w3.org/2000/svg" xmlns:xlink="http://www.w3.org/1999/xlink">
    <!-- Generator: Sketch 53.2 (72643) - https://sketchapp.com -->
    <title>visa</title>
    <desc>Created with Sketch.</desc>
    <g id="Page-1" stroke="none" stroke-width="1" fill="none" fill-rule="evenodd">
        <g id="Artboard" transform="translate(-965.000000, -603.000000)" fill="#FFFFFF">
            <g id="visa" transform="translate(965.000000, 603.000000)">
                <path d="M14.152046,11.1609526 L11.5064671,11.1609526 L13.1612017,0.872216182 L15.806636,0.872216182 L14.152046,11.1609526 Z M23.7425047,1.12374643 L23.3827106,3.34547573 L23.1434265,3.23622228 C22.6647138,3.02818975 22.0327955,2.82030269 21.1727328,2.84226976 C20.128216,2.84226976 19.6597748,3.29077627 19.6489245,3.72866294 C19.6489245,4.21033827 20.2155966,4.52776974 21.1409054,4.99853428 C22.6651478,5.73188534 23.3721497,6.62933479 23.3615888,7.80057252 C23.3401776,9.93501545 21.5329609,11.3142857 18.7570344,11.3142857 C17.5701624,11.3032294 16.4269806,11.0509718 15.8064913,10.7667092 L16.1767016,8.45711157 L16.5250668,8.62150092 C17.3851295,9.00497908 17.9510783,9.16878652 19.0073134,9.16878652 C19.7690005,9.16878652 20.5856623,8.8510641 20.5960785,8.16179266 C20.5960785,7.71299519 20.2481473,7.38436197 19.2246076,6.88086504 C18.2232024,6.38813343 16.8842822,5.56735051 16.9059827,4.08959212 C16.917267,2.08666067 18.7570344,0.685714286 21.3696286,0.685714286 C22.3930236,0.685714286 23.2206803,0.915568417 23.7425047,1.12374643 Z M27.2587072,7.51601893 C27.781255,7.51601893 29.0442234,7.51601893 29.4576901,7.51601893 C29.3488983,7.0016112 28.8479063,4.53882601 28.8479063,4.53882601 L28.6630182,3.65228736 C28.5323812,4.03532908 28.3039474,4.65928122 28.3149423,4.63731414 C28.3149423,4.63731414 27.4765801,6.92494466 27.2587072,7.51601893 Z M30.5243414,0.872216182 L32.6586568,11.1608072 L30.2091057,11.1608072 C30.2091057,11.1608072 29.9693876,9.97865864 29.8934359,9.6174385 C29.5016697,9.6174385 26.8012609,9.6174385 26.4967307,9.6174385 C26.3984998,9.89093583 25.9414876,11.1608072 25.9414876,11.1608072 L23.165561,11.1608072 L27.0952302,1.72587697 C27.367499,1.05813617 27.8469351,0.872216182 28.4779853,0.872216182 L30.5243414,0.872216182 Z M9.2967787,0.872216182 L12.094261,0.872216182 L7.93586872,11.1500418 L5.13824172,11.1500418 L2.76507627,2.15256189 C4.44151136,3.03953698 5.94376386,4.82337961 6.42276598,6.4652364 L6.70588502,7.88814986 L9.2967787,0.872216182 Z" id="Combined-Shape"></path>
                <path d="M4.30002417,0.872216182 L0.0435456473,0.872216182 L5.32907052e-15,1.08010324 C3.32031944,1.93390951 5.5193023,3.99197685 6.42276598,6.46567283 L5.49745714,1.73707872 C5.34511971,1.07995776 4.87696783,0.8938923 4.30002417,0.872216182 L4.30002417,0.872216182 Z" id="path17"></path>
            </g>
        </g>
    </g>
</svg>